<svg class="rounded-full" version="1.2" xmlns="http://www.w3.org/2000/svg" viewBox="0 0 1024 1024"><defs><linearGradient id="P" gradientUnits="userSpaceOnUse"/><radialGradient id="g1" cx="482.1" cy="474.4" r="992.8" href="#P"><stop stop-opacity=".59"/><stop offset=".31" stop-opacity=".59"/><stop offset=".54" stop-opacity="0"/><stop offset="1" stop-opacity="0"/></radialGradient><linearGradient id="g2" x1="504" y1="894.2" x2="442.8" y2="312.1" href="#P"><stop stop-color="#f7b4a7"/><stop offset=".59" stop-color="#f7b4a7"/><stop offset=".91" stop-color="#946c64"/><stop offset="1" stop-color="#946c64"/></linearGradient></defs><style>.a{fill:#f6c22a}.b{fill:#9b37bc;stroke:#9b37bc;stroke-linecap:round;stroke-linejoin:round;stroke-width:27.8}.c{fill:url(#g1)}.d{fill:url(#g2)}.e{fill:#a7653c}.f{fill:none;stroke:#000;stroke-linecap:round;stroke-linejoin:round;stroke-width:55.7}.g{fill:#020202}.h{fill:#ed55ab}.i{fill:none;stroke:#9b37bc;stroke-linecap:round;stroke-linejoin:round;stroke-width:51}</style><path fill-rule="evenodd" class="a" d="m450.1 789.5c121.9-34.8 275.7-6.8 370.9 92.6 33.4 35 78.1 94.5 70.8 151-7.5 58.5-44.7 115.4-77.3 158.3-26.1 34.5-54.6 66.3-88.1 90.8-43.5 31.6-92.6 52.8-143 62.9-118.8 23.8-276.7 20.2-372.5-78.7-32.4-33.6-60.1-73.5-83.6-116-24.2-44.1-54.4-108.1-55.7-161.9-0.7-28.5 11.1-54.1 22.4-78.5 45-97.4 131.1-126.4 218.2-141.3"/><path fill-rule="evenodd" class="b" d="m95.6 1094.5c9.7 4.5 33.1-4.7 43-5.9 42.8-5.3 85.4-7.4 128.5-8.7 163.1-5 325.7-20.2 488.9-23.9 17.9-0.4 35.7-0.3 53.6-0.4 24.4-0.2 135.6-26.1 139 21.6 5.6 80.7-85.3 184-146.2 220.1-134.7 79.9-257.7 78-407 48.3-48.4-9.6-98.3-19.1-144.9-35.7-23.7-8.5-42.7-25.2-63-39.5-67.1-47-138.6-102.9-61.2-176.1"/><path fill-rule="evenodd" class="b" d="m682.7 834.2c13.2 8.8 25.3 20.2 36.7 31.6 42.8 42.7 68.1 102.3 73.1 166.7 3.2 41.6 8.2 63.9-28.9 80.5-6.2 2.8-26.1 13.7-33.4 10.1-5-2.4-4.2-15.1-5.1-19.9-3.5-18.7-7.4-38.2-13.1-56.1-16.6-52.9-35.6-104-57.3-154.5-7.9-18.2-26.5-50.3-21.7-72.1 1.2-5 42.4 8.8 49.7 13.7z"/><path fill-rule="evenodd" class="b" d="m524.1 816.9c3.8 20.9 7.9 41.8 11.3 62.8 9.1 56.5 7.9 115.5 11.3 172.3 0.7 10.8 5.3 52.7-6.1 60.4-12.1 8.2-28.4 5.9-41.7 7.9-10.6 1.7-21.6 5.2-32.4 0.7-18.3-7.5-12.5-68.2-11.7-84.7 0.9-17.5 1.6-35.8 1.1-53.5-1-38.3-8-101.8 3.3-136.8 3.7-11.4 13.1-34.9 21.6-42.3 15-13 41.2 14.3 50.6 26.1"/><path fill-rule="evenodd" class="c" d="m450.1 789.5c121.9-34.8 275.7-6.8 370.9 92.6 33.4 35 78.1 94.5 70.8 151-7.5 58.5-44.7 115.4-77.3 158.3-26.1 34.5-54.6 66.3-88.1 90.8-43.5 31.6-92.6 52.8-143 62.9-118.8 23.8-276.7 20.2-372.5-78.7-32.4-33.6-60.1-73.5-83.6-116-24.2-44.1-54.4-108.1-55.7-161.9-0.7-28.5 11.1-54.1 22.4-78.5 45-97.4 131.1-126.4 218.2-141.3"/><path class="d" d="m473.4 894.2c-214.8 0-388.5-130.1-388.5-291 0-161 173.7-291.1 388.5-291.1 214.8 0 388.5 130.1 388.5 291.1 0 160.9-173.7 291-388.5 291z"/><path fill-rule="evenodd" class="e" d="m88.8 474.3c-0.9 16.1-5 31.9-6.9 47.8-0.6 4.5-3.1 14.2 0.1 18.3 5.1 6.7 32.7-12.9 34.9-5.2 7.1 24.9 1.5 51.7 8.4 76.7 3.5 12.6 11.8 22.2 25.5 18.6 19-5.1 27.6-26.7 36-42.2 18.4-34.3 23.7-75.8 55.5-101.8 6.6-5.4 40.4-32.7 33.1-44.6-7.9-12.8-32.8-12.3-44.9-12.4-35.7-0.3-68.9 6-103.9 11.9-12 2-37.5 27.4-37.8 32.9z"/><path fill-rule="evenodd" class="a" d="m355 448.4c72.4-8.4 145.6-8 218.3-13.5 69.3-5.1 140.6-15.6 209.4-25.7 17.6-2.6 34.7-6 52.1-9.4 11.5-2.3 23.1-4.1 34.4-7.2 25.6-7 120.7-21.1 116.8-56.4-1.9-16.5-34-27.4-48.1-28.1-42.3-2.2-110.3 18.4-147.7-6.4-35.9-23.9-37.5-93-60.8-128.6-62.4-95.1-206.4-117.5-307.6-83.3-142.3 48.2-250.6 153-349.3 261.6-18.9 20.9-39.5 43.3-53.6 67.8-7.1 12.2-11 23.9-7.4 37.1 12.5 45.9 75 30.9 75 30.9 0 0 172.8-27.8 268.5-38.8z"/><path class="f" d="m369.3 410.8c20.2 28.2 58.1 47.1 87 64 30.2 17.8 61.1 39.2 93.1 53.4"/><path class="f" d="m789.9 385.9c-17.1 12-30.4 36.2-45.5 51-27.1 26.5-60 52.7-86.9 77.4"/><path class="f" d="m624.2 757.9c-2.8-12.6-5.1-24.8-10.9-36.5-3.2-6.4-6.9-13-10.7-19-0.5-0.9-11.3-21.8-16-20.6-3 0.7-7.6 13.4-8.9 15.6-8.9 15.2-20.6 29-32.7 41.8-5.8 6.1-15.2 18.6-25.4 13.8-28.2-13-52.7-43.2-75-64.2-4-3.8-20.4-23.6-27.6-23.8-2.4-0.1-7.3 14.7-8.1 16.2-3.9 8.2-15.1 41.3-25.2 43.5-4 0.8-9.8-7-11.5-9-10.5-12.7-20.1-26.4-29.7-39.8-5.7-7.8-15.5-18.5-16-28.8"/><path class="f" d="m642.9 757.9c0.6-10.2 9.4-21.3 13.9-29.9 4.2-7.9 20-52.1 35.4-47.3 8 2.4 12.2 56.5 31.4 48.8 13-5.3 22.1-27.7 29.5-38.5 0.5-0.7 7.4-11.6 9.6-9.7 5.2 4.4 12.9 46.1 24.4 41.6 8.2-3.1 12.5-25.4 14.6-32.3 6.3-20.8 10.9-43.3 21.5-62.5 4.5-8.2 13-13.2 17.3-21.1"/><path class="g" d="m756 572c-20.2 0-36.5-16.3-36.5-36.5 0-20.2 16.3-36.5 36.5-36.5 20.2 0 36.5 16.3 36.5 36.5 0 20.2-16.3 36.5-36.5 36.5z"/><path class="g" d="m449.8 603.9c-20.2 0-36.5-16.3-36.5-36.5 0-20.2 16.3-36.5 36.5-36.5 20.2 0 36.5 16.3 36.5 36.5 0 20.2-16.3 36.5-36.5 36.5z"/><path class="h" d="m727.6 704.6c-37.6 1.4-69.4-24.3-71.2-57.5-1.8-33.2 27.1-61.2 64.7-62.6 37.6-1.4 69.5 24.3 71.3 57.5 1.8 33.2-27.1 61.2-64.8 62.6z"/><path class="h" d="m628.2 740.1c-50.8 2.1-93.8-37.7-96.3-89.1-2.4-51.4 36.7-94.8 87.5-96.9 50.8-2.2 93.9 37.6 96.3 89.1 2.5 51.4-36.6 94.7-87.5 96.9z"/><path class="h" d="m536.8 724.4c-44 1.5-81.2-26.7-83.3-63.2-2.2-36.4 31.7-67.1 75.6-68.7 44-1.5 81.2 26.7 83.4 63.2 2.1 36.4-31.8 67.1-75.7 68.7z"/><path class="i" d="m531.7 357.9c-12.3-35.1-22.6-69.7-34.2-102.6-3.3-9.4-13.4-31.7-9.7-42.4 9.5-27.8 36.6-34.6 58.1-33.8 24.2 0.8 50.2-3.5 59.8 27.7 8.4 27.5-10.7 40.1-41 52.8-4.2 1.8-33 11.5-33.7 14.6-1.1 5.1 34.1 10.9 38.9 12 35.5 8.3 65 23.1 87.1 49.1"/></svg>
