<?xml version="1.0" standalone="no"?>
<!DOCTYPE svg PUBLIC "-//W3C//DTD SVG 20010904//EN"
 "http://www.w3.org/TR/2001/REC-SVG-20010904/DTD/svg10.dtd">
<svg version="1.0" xmlns="http://www.w3.org/2000/svg"
 width="366.000000pt" height="366.000000pt" viewBox="0 0 366.000000 366.000000"
 preserveAspectRatio="xMidYMid meet">
<metadata>
Created by potrace 1.14, written by Peter Selinger 2001-2017
</metadata>
<g transform="translate(0.000000,366.000000) scale(0.100000,-0.100000)"
fill="#000000" stroke="none">
<path d="M1668 3351 c-239 -52 -504 -184 -769 -383 -183 -136 -284 -227 -478
-428 -198 -205 -304 -327 -372 -428 -43 -65 -49 -80 -49 -125 0 -69 26 -116
81 -147 37 -21 57 -25 123 -25 l78 0 -7 -45 c-3 -25 -9 -69 -12 -97 -6 -51 -5
-53 19 -53 l25 0 -13 -57 c-21 -89 -18 -272 6 -373 98 -414 519 -751 1075
-861 106 -21 148 -24 360 -24 212 0 254 3 360 24 371 73 693 251 885 488 104
129 164 254 198 413 l21 95 -30 -35 c-44 -52 -55 -75 -94 -211 -54 -182 -94
-239 -170 -239 -29 0 -75 21 -93 43 -10 12 -18 9 -47 -19 -71 -67 -143 -66
-210 3 l-34 35 -36 -76 c-47 -99 -67 -114 -151 -114 -87 -1 -116 24 -143 121
l-19 68 32 -8 c17 -4 65 -8 106 -8 93 1 168 32 232 97 40 42 45 44 78 36 84
-19 203 21 258 88 31 37 59 124 47 143 -19 32 100 200 156 220 32 11 71 1 100
-25 14 -13 15 -8 7 47 -25 184 -107 360 -237 508 l-38 45 -59 -64 c-86 -93
-379 -347 -410 -354 -41 -11 -97 22 -110 63 -6 19 -8 46 -4 60 4 16 78 91 193
196 102 94 208 197 235 230 77 96 116 125 163 125 55 0 99 -42 99 -95 0 -30
-9 -46 -52 -93 -36 -40 -40 -46 -12 -19 36 33 51 39 140 56 171 33 387 90 451
121 148 69 150 156 4 211 -49 18 -69 20 -151 15 -353 -23 -408 -19 -483 38
-55 42 -87 103 -138 261 -53 167 -87 231 -168 313 -83 85 -159 135 -275 182
-144 58 -218 72 -411 76 -139 3 -186 0 -257 -15z m953 -370 c16 -17 29 -40 29
-54 0 -36 -66 -305 -95 -388 -42 -122 -104 -212 -169 -246 -39 -20 -106 -18
-158 5 -39 17 -113 84 -152 137 -15 20 -15 20 -33 -5 -26 -37 -74 -81 -101
-91 -73 -28 -151 2 -202 76 -47 68 -180 420 -180 476 0 70 70 114 133 84 39
-18 43 -25 117 -235 29 -80 58 -156 65 -169 l12 -23 23 33 c114 166 216 171
300 16 20 -37 50 -82 68 -99 l31 -32 36 76 c21 45 53 145 79 248 37 148 47
177 70 197 39 33 90 31 127 -6z m-1172 -835 c37 -35 92 -79 122 -98 105 -67
375 -226 447 -264 76 -39 102 -70 102 -120 0 -35 -59 -94 -94 -94 -32 0 -156
61 -290 144 -56 34 -143 86 -194 115 -194 110 -292 207 -292 286 0 36 5 48 31
69 53 45 88 37 168 -38z m1438 -408 c115 -115 -33 -296 -168 -205 -42 28 -59
60 -59 112 0 120 142 178 227 93z m-1182 -92 c68 -29 96 -126 55 -193 -53 -88
-190 -82 -233 10 -22 45 -21 84 1 126 34 63 107 86 177 57z m-450 -353 c14
-14 25 -32 25 -41 0 -8 23 -46 52 -84 l52 -70 23 53 c13 30 33 64 45 76 65 69
189 12 223 -102 18 -64 71 -121 141 -154 57 -28 169 -39 227 -23 33 9 42 8 77
-15 l39 -26 -51 -59 c-89 -103 -153 -136 -222 -117 -46 13 -139 82 -240 180
-85 80 -96 88 -96 67 0 -28 -67 -109 -105 -128 -78 -38 -124 -6 -253 170 -110
150 -129 220 -75 274 41 41 96 40 138 -1z"/>
</g>
</svg>
